<svg width="132" height="24" viewBox="0 0 132 24" fill="none" xmlns="http://www.w3.org/2000/svg">
<path fill-rule="evenodd" clip-rule="evenodd" d="M1.66667 0H22.3333C23.2538 0 24 0.746192 24 1.66667V22.3333C24 23.2538 23.2538 24 22.3333 24H1.66667C0.746192 24 0 23.2538 0 22.3333V1.66667C0 0.746192 0.746192 0 1.66667 0ZM6.4159 4.68293C5.4588 4.68293 4.6829 5.45883 4.6829 6.41593C4.6829 7.02914 5.0014 7.56797 5.482 7.87602C5.74908 8.04352 6.06498 8.14037 6.4035 8.14037H17.5965C17.9344 8.14037 18.2497 8.04389 18.5165 7.87698C18.9979 7.5691 19.3171 7.02979 19.3171 6.41593C19.3171 5.45883 18.5412 4.68293 17.5841 4.68293H6.4159ZM4.6829 10.6521C4.6829 9.69503 5.4588 8.91913 6.4159 8.91913H8.72657C9.27899 8.91913 9.77103 9.17761 10.0884 9.58022C10.3188 9.87496 10.4561 10.246 10.4561 10.6491C10.4561 11.5374 9.78932 12.2699 8.92896 12.3734C8.86257 12.3812 8.79503 12.3851 8.72657 12.3851H6.4159C5.4588 12.3851 4.6829 11.6092 4.6829 10.6521ZM17.5841 12.3851H15.2734C14.3163 12.3851 13.5404 11.6092 13.5404 10.6521C13.5404 9.69503 14.3163 8.91913 15.2734 8.91913H17.5841C18.5412 8.91913 19.3171 9.69503 19.3171 10.6521C19.3171 11.6092 18.5412 12.3851 17.5841 12.3851ZM9.11167 19.3171H6.0308C5.28637 19.3171 4.6829 18.7136 4.6829 17.9692C4.6829 17.5219 4.90079 17.1255 5.23622 16.8803C5.45679 16.7237 5.7264 16.6316 6.01753 16.6316H9.10527C9.85133 16.6316 10.4561 17.2364 10.4561 17.9825C10.4561 18.093 10.4429 18.2005 10.4178 18.3034C10.2691 18.8862 9.74073 19.3171 9.11167 19.3171ZM5.77219 13.1801C5.15148 13.3007 4.6829 13.8473 4.6829 14.5032C4.6829 15.2476 5.28637 15.8511 6.0308 15.8511H7.1861C7.52904 15.8511 7.84207 15.723 8.07996 15.5121C8.35403 15.2649 8.5263 14.9069 8.5263 14.5088C8.5263 13.7627 7.9215 13.1579 7.17543 13.1579H6.01753C5.93375 13.1579 5.85175 13.1655 5.77219 13.1801ZM17.9692 15.8511H10.6521C9.9077 15.8511 9.3042 15.2476 9.3042 14.5032C9.3042 14.034 9.54393 13.6208 9.90758 13.3794C10.1205 13.2394 10.3753 13.1579 10.6491 13.1579H17.9825C18.0663 13.1579 18.1483 13.1655 18.2278 13.1801C18.8485 13.3008 19.3171 13.8473 19.3171 14.5032C19.3171 15.2476 18.7136 15.8511 17.9692 15.8511Z" fill="white"/>
<path d="M39 18.604C38.4477 18.604 38 18.1562 38 17.604V6.206C38 5.65372 38.4477 5.206 39 5.206H42.9791C44.4741 5.206 45.741 5.46573 46.7799 5.98517C47.8315 6.50462 48.6297 7.26479 49.1745 8.26568C49.7319 9.25389 50.0106 10.4638 50.0106 11.8955C50.0106 13.3271 49.7319 14.5434 49.1745 15.5443C48.6297 16.5452 47.8315 17.3053 46.7799 17.8248C45.741 18.3442 44.4741 18.604 42.9791 18.604H39ZM40.4325 15.5895C40.4325 16.1418 40.8802 16.5895 41.4325 16.5895H42.8271C44.3854 16.5895 45.5447 16.2031 46.3048 15.4303C47.0777 14.6447 47.4641 13.4665 47.4641 11.8955C47.4641 10.3245 47.0777 9.15254 46.3048 8.3797C45.532 7.60686 44.3727 7.22044 42.8271 7.22044H41.4325C40.8803 7.22044 40.4325 7.66816 40.4325 8.22044V15.5895Z" fill="white"/>
<path d="M55.3075 18.794C54.636 18.794 54.0342 18.6673 53.5021 18.4139C52.9826 18.1479 52.5709 17.7931 52.2668 17.3497C51.9754 16.9062 51.8297 16.4058 51.8297 15.8483C51.8297 15.1642 52.0071 14.6257 52.3618 14.233C52.7166 13.8276 53.293 13.5362 54.0912 13.3588C54.8894 13.1814 55.9599 13.0927 57.3029 13.0927H57.569C57.9468 13.0927 58.2531 13.399 58.2531 13.7769C58.2531 14.1547 57.9468 14.461 57.569 14.461H57.3219C56.7264 14.461 56.226 14.4864 55.8206 14.5371C55.4151 14.5751 55.0857 14.6447 54.8324 14.7461C54.5916 14.8348 54.4143 14.9615 54.3002 15.1262C54.1989 15.2909 54.1482 15.4936 54.1482 15.7343C54.1482 16.1524 54.2939 16.4945 54.5853 16.7605C54.8767 17.0266 55.2821 17.1596 55.8016 17.1596C56.2197 17.1596 56.5871 17.0646 56.9038 16.8746C57.2332 16.6719 57.4929 16.3995 57.683 16.0574C57.873 15.7153 57.968 15.3226 57.968 14.8791V12.6937C57.968 12.0602 57.8287 11.6041 57.55 11.3253C57.2712 11.0466 56.8025 10.9073 56.1436 10.9073C55.6242 10.9073 55.0921 10.9896 54.5473 11.1543C54.3019 11.2228 54.0553 11.3092 53.8074 11.4137C53.3074 11.6243 52.7059 11.4324 52.4943 10.9329C52.3286 10.5416 52.4581 10.0812 52.8406 9.89622C53.0067 9.81589 53.1828 9.74115 53.369 9.67198C53.8251 9.49461 54.3002 9.36158 54.7943 9.2729C55.3011 9.17154 55.7762 9.12086 56.2197 9.12086C57.1319 9.12086 57.8794 9.26023 58.4622 9.53896C59.0576 9.81768 59.501 10.2421 59.7924 10.8122C60.0838 11.3697 60.2295 12.0919 60.2295 12.9787V17.604C60.2295 18.1562 59.7818 18.604 59.2295 18.604H58.9943C58.4485 18.604 58.0061 18.1615 58.0061 17.6157V16.696C58.0061 16.6582 58.0367 16.6275 58.0745 16.6275C58.1178 16.6275 58.1502 16.6671 58.1406 16.7092C58.0471 17.1186 57.8756 17.4778 57.626 17.7868C57.3726 18.1035 57.0495 18.3506 56.6568 18.5279C56.264 18.7053 55.8142 18.794 55.3075 18.794Z" fill="white"/>
<path d="M66.0424 18.794C65.523 18.794 65.0162 18.7497 64.5221 18.661C64.0407 18.5723 63.5972 18.4519 63.1918 18.2999C63.0007 18.2222 62.8209 18.1362 62.6523 18.0416C62.325 17.8581 62.2207 17.4531 62.3571 17.1036C62.553 16.6017 63.1607 16.4062 63.6551 16.6203C63.6905 16.6356 63.7261 16.6507 63.7619 16.6655C64.1294 16.8176 64.5094 16.9316 64.9022 17.0076C65.2949 17.0836 65.6814 17.1216 66.0614 17.1216C66.6696 17.1216 67.1193 17.0203 67.4107 16.8176C67.7148 16.6022 67.8668 16.3234 67.8668 15.9814C67.8668 15.69 67.7655 15.4683 67.5628 15.3162C67.3727 15.1515 67.0813 15.0312 66.6886 14.9551L64.7882 14.5941C64.0027 14.442 63.4009 14.157 62.9828 13.7389C62.5774 13.3081 62.3746 12.757 62.3746 12.0855C62.3746 11.4774 62.5393 10.9516 62.8687 10.5082C63.2108 10.0647 63.6796 9.72266 64.2751 9.48194C64.8705 9.24122 65.5547 9.12086 66.3275 9.12086C66.7709 9.12086 67.2017 9.16521 67.6198 9.25389C68.0379 9.32991 68.4306 9.45027 68.798 9.61497C68.9873 9.69066 69.1639 9.7789 69.328 9.87971C69.6211 10.0598 69.6984 10.4351 69.5666 10.7528L69.5172 10.8721C69.3305 11.3224 68.7501 11.4646 68.3039 11.2683C67.9872 11.1163 67.6578 11.0023 67.3157 10.9263C66.9863 10.8376 66.6632 10.7932 66.3465 10.7932C65.7257 10.7932 65.2633 10.9009 64.9592 11.1163C64.6678 11.3317 64.5221 11.6167 64.5221 11.9715C64.5221 12.2375 64.6108 12.4593 64.7882 12.6366C64.9655 12.814 65.2379 12.9344 65.6053 12.9977L67.5058 13.3588C68.3293 13.5108 68.9501 13.7896 69.3682 14.195C69.7989 14.6004 70.0143 15.1452 70.0143 15.8293C70.0143 16.4501 69.8496 16.9823 69.5202 17.4257C69.1908 17.8691 68.7284 18.2112 68.1329 18.4519C67.5374 18.68 66.8406 18.794 66.0424 18.794Z" fill="white"/>
<path d="M72.9201 18.604C72.3678 18.604 71.9201 18.1562 71.9201 17.604V6.206C71.9201 5.65372 72.3678 5.206 72.9201 5.206H73.2956C73.8479 5.206 74.2956 5.65372 74.2956 6.206V11.0668C74.2956 11.1256 74.2479 11.1733 74.1891 11.1733C74.1131 11.1733 74.0617 11.0961 74.0938 11.0272C74.3727 10.4279 74.7821 9.96979 75.3218 9.65298C75.9173 9.29824 76.5888 9.12086 77.3363 9.12086C78.0838 9.12086 78.6982 9.26023 79.1797 9.53896C79.6611 9.81768 80.0222 10.2421 80.2629 10.8122C80.5036 11.3697 80.624 12.0792 80.624 12.9407V17.604C80.624 18.1562 80.1763 18.604 79.624 18.604H79.2485C78.6962 18.604 78.2485 18.1562 78.2485 17.604V13.0547C78.2485 12.5733 78.1851 12.1805 78.0584 11.8765C77.9444 11.5724 77.7607 11.3507 77.5073 11.2113C77.2666 11.0593 76.9562 10.9833 76.5761 10.9833C76.12 10.9833 75.7209 11.0846 75.3788 11.2873C75.0368 11.4774 74.7707 11.7561 74.5807 12.1235C74.3906 12.4783 74.2956 12.8964 74.2956 13.3778V17.604C74.2956 18.1562 73.8479 18.604 73.2956 18.604H72.9201Z" fill="white"/>
<path d="M88.396 18.794C87.6105 18.794 86.92 18.5976 86.3245 18.2049C85.7726 17.8329 85.3968 17.3417 85.1971 16.7312C85.1803 16.6796 85.2194 16.6275 85.2737 16.6275C85.3188 16.6275 85.3553 16.664 85.3553 16.7091V17.6157C85.3553 18.1615 84.9128 18.604 84.3671 18.604H84.0368C83.4845 18.604 83.0368 18.1562 83.0368 17.604V6.206C83.0368 5.65372 83.4845 5.206 84.0368 5.206H84.4123C84.9646 5.206 85.4123 5.65372 85.4123 6.206V11.0964C85.4123 11.1494 85.3694 11.1923 85.3164 11.1923C85.2512 11.1923 85.2051 11.1286 85.2281 11.0676C85.4411 10.5042 85.8193 10.0453 86.3625 9.69099C86.9453 9.31091 87.6231 9.12086 88.396 9.12086C89.2195 9.12086 89.9353 9.31724 90.5434 9.70999C91.1516 10.1027 91.6267 10.6602 91.9687 11.3824C92.3108 12.0919 92.4819 12.947 92.4819 13.9479C92.4819 14.9361 92.3108 15.7977 91.9687 16.5325C91.6267 17.2547 91.1452 17.8121 90.5244 18.2049C89.9163 18.5976 89.2068 18.794 88.396 18.794ZM87.7308 16.9886C88.4403 16.9886 89.0104 16.7352 89.4412 16.2284C89.872 15.709 90.0873 14.9488 90.0873 13.9479C90.0873 12.9344 89.872 12.1805 89.4412 11.6864C89.0104 11.1797 88.4403 10.9263 87.7308 10.9263C87.0213 10.9263 86.4512 11.1797 86.0204 11.6864C85.5897 12.1805 85.3743 12.9344 85.3743 13.9479C85.3743 14.9488 85.5897 15.709 86.0204 16.2284C86.4512 16.7352 87.0213 16.9886 87.7308 16.9886Z" fill="white"/>
<path d="M98.6698 18.794C97.7069 18.794 96.8707 18.5976 96.1612 18.2049C95.4518 17.8121 94.9006 17.2547 94.5079 16.5325C94.1151 15.7977 93.9188 14.9361 93.9188 13.9479C93.9188 12.9597 94.1151 12.1045 94.5079 11.3824C94.9006 10.6602 95.4518 10.1027 96.1612 9.70999C96.8707 9.31724 97.7069 9.12086 98.6698 9.12086C99.6327 9.12086 100.469 9.31724 101.178 9.70999C101.888 10.1027 102.439 10.6602 102.832 11.3824C103.224 12.1045 103.421 12.9597 103.421 13.9479C103.421 14.9361 103.224 15.7977 102.832 16.5325C102.439 17.2547 101.888 17.8121 101.178 18.2049C100.469 18.5976 99.6327 18.794 98.6698 18.794ZM98.6698 16.9886C99.3793 16.9886 99.9494 16.7352 100.38 16.2284C100.811 15.709 101.026 14.9488 101.026 13.9479C101.026 12.9344 100.811 12.1805 100.38 11.6864C99.9494 11.1797 99.3793 10.9263 98.6698 10.9263C97.9603 10.9263 97.3902 11.1797 96.9594 11.6864C96.5287 12.1805 96.3133 12.9344 96.3133 13.9479C96.3133 14.9488 96.5287 15.709 96.9594 16.2284C97.3902 16.7352 97.9603 16.9886 98.6698 16.9886Z" fill="white"/>
<path d="M108.441 18.794C107.77 18.794 107.168 18.6673 106.636 18.4139C106.116 18.1479 105.705 17.7931 105.401 17.3497C105.109 16.9062 104.963 16.4058 104.963 15.8483C104.963 15.1642 105.141 14.6257 105.496 14.233C105.85 13.8276 106.427 13.5362 107.225 13.3588C108.023 13.1814 109.094 13.0927 110.437 13.0927H110.703C111.081 13.0927 111.387 13.399 111.387 13.7769C111.387 14.1547 111.081 14.461 110.703 14.461H110.456C109.86 14.461 109.36 14.4864 108.954 14.5371C108.549 14.5751 108.219 14.6447 107.966 14.7461C107.725 14.8348 107.548 14.9615 107.434 15.1262C107.333 15.2909 107.282 15.4936 107.282 15.7343C107.282 16.1524 107.428 16.4945 107.719 16.7605C108.01 17.0266 108.416 17.1596 108.935 17.1596C109.353 17.1596 109.721 17.0646 110.038 16.8746C110.367 16.6719 110.627 16.3995 110.817 16.0574C111.007 15.7153 111.102 15.3226 111.102 14.8791V12.6937C111.102 12.0602 110.962 11.6041 110.684 11.3253C110.405 11.0466 109.936 10.9073 109.277 10.9073C108.758 10.9073 108.226 10.9896 107.681 11.1543C107.436 11.2228 107.189 11.3092 106.941 11.4137C106.441 11.6243 105.84 11.4324 105.628 10.9329C105.462 10.5416 105.592 10.0812 105.974 9.89622C106.14 9.81589 106.317 9.74115 106.503 9.67198C106.959 9.49461 107.434 9.36158 107.928 9.2729C108.435 9.17154 108.91 9.12086 109.353 9.12086C110.266 9.12086 111.013 9.26023 111.596 9.53896C112.191 9.81768 112.635 10.2421 112.926 10.8122C113.218 11.3697 113.363 12.0919 113.363 12.9787V17.604C113.363 18.1562 112.916 18.604 112.363 18.604H112.128C111.582 18.604 111.14 18.1615 111.14 17.6157V16.696C111.14 16.6582 111.17 16.6275 111.208 16.6275C111.252 16.6275 111.284 16.6671 111.274 16.7092C111.181 17.1186 111.009 17.4778 110.76 17.7868C110.506 18.1035 110.183 18.3506 109.791 18.5279C109.398 18.7053 108.948 18.794 108.441 18.794Z" fill="white"/>
<path d="M116.774 18.604C116.222 18.604 115.774 18.1562 115.774 17.604V10.3109C115.774 9.75862 116.222 9.3109 116.774 9.3109H117.093C117.645 9.3109 118.093 9.75862 118.093 10.3109V11.4693C118.093 11.5158 118.055 11.5534 118.009 11.5534C117.955 11.5534 117.915 11.5028 117.928 11.4504C118.112 10.741 118.452 10.1988 118.948 9.82402C119.468 9.4186 120.158 9.18421 121.02 9.12086C121.418 9.08941 121.766 9.38766 121.796 9.7862L121.82 10.1024C121.861 10.6448 121.461 11.1204 120.92 11.173L120.525 11.2113C119.753 11.2873 119.17 11.5281 118.777 11.9335C118.384 12.3262 118.188 12.8837 118.188 13.6059V17.604C118.188 18.1562 117.74 18.604 117.188 18.604H116.774Z" fill="white"/>
<path d="M126.641 18.794C125.83 18.794 125.114 18.5976 124.493 18.2049C123.885 17.8121 123.41 17.2547 123.068 16.5325C122.726 15.7977 122.555 14.9361 122.555 13.9479C122.555 12.947 122.726 12.0919 123.068 11.3824C123.41 10.6602 123.885 10.1027 124.493 9.70999C125.114 9.31724 125.83 9.12086 126.641 9.12086C127.414 9.12086 128.085 9.31091 128.655 9.69099C129.202 10.0474 129.581 10.5098 129.794 11.078C129.814 11.1339 129.772 11.1923 129.712 11.1923C129.664 11.1923 129.624 11.153 129.624 11.1044V6.206C129.624 5.65372 130.072 5.206 130.624 5.206H131C131.552 5.206 132 5.65372 132 6.206V17.604C132 18.1562 131.552 18.604 131 18.604H130.67C130.124 18.604 129.681 18.1615 129.681 17.6157V16.7009C129.681 16.6604 129.714 16.6275 129.755 16.6275C129.804 16.6275 129.839 16.6744 129.824 16.7209C129.625 17.3362 129.248 17.8308 128.693 18.2049C128.11 18.5976 127.426 18.794 126.641 18.794ZM127.306 16.9886C128.015 16.9886 128.586 16.7352 129.016 16.2284C129.447 15.709 129.662 14.9488 129.662 13.9479C129.662 12.9344 129.447 12.1805 129.016 11.6864C128.586 11.1797 128.015 10.9263 127.306 10.9263C126.596 10.9263 126.026 11.1797 125.596 11.6864C125.165 12.1805 124.949 12.9344 124.949 13.9479C124.949 14.9488 125.165 15.709 125.596 16.2284C126.026 16.7352 126.596 16.9886 127.306 16.9886Z" fill="white"/>
</svg>
