<svg width="120" height="120" viewBox="0 0 120 120" fill="none" xmlns="http://www.w3.org/2000/svg">
<mask id="mask0_1930_2268" style="mask-type:luminance" maskUnits="userSpaceOnUse" x="0" y="0" width="120" height="120">
<path d="M113.906 0H6.09375C2.72826 0 0 2.72826 0 6.09375V113.906C0 117.272 2.72826 120 6.09375 120H113.906C117.272 120 120 117.272 120 113.906V6.09375C120 2.72826 117.272 0 113.906 0Z" fill="white"/>
</mask>
<g mask="url(#mask0_1930_2268)">
<path fill-rule="evenodd" clip-rule="evenodd" d="M0 0H120V120H0V0ZM32.1217 40.8061C27.3255 40.8061 23.4375 36.9178 23.4375 32.1216C23.4375 27.3255 27.3255 23.4375 32.1217 23.4375H88.0866C92.8828 23.4375 96.7706 27.3255 96.7706 32.1216C96.7706 36.9178 92.8828 40.8061 88.0866 40.8061H32.1217ZM32.1217 62.0339C27.3255 62.0339 23.4375 58.1461 23.4375 53.3498C23.4375 48.5536 27.3255 44.6653 32.1217 44.6653H43.7007C48.4969 44.6653 52.3847 48.5536 52.3847 53.3498C52.3847 58.1461 48.4969 62.0339 43.7007 62.0339H32.1217ZM23.4375 72.6478C23.4375 76.3781 26.4615 79.4025 30.1918 79.4025H35.9813C39.7117 79.4025 42.7357 76.3781 42.7357 72.6478C42.7357 68.9175 39.7117 65.8936 35.9813 65.8936H30.1918C26.4615 65.8936 23.4375 68.9175 23.4375 72.6478ZM30.1918 96.7706C26.4615 96.7706 23.4375 93.7467 23.4375 90.0164C23.4375 86.2861 26.4615 83.2622 30.1918 83.2622H45.6305C49.3608 83.2622 52.3847 86.2861 52.3847 90.0164C52.3847 93.7467 49.3608 96.7706 45.6305 96.7706H30.1918ZM53.3498 79.4025C49.6195 79.4025 46.5952 76.3781 46.5952 72.6478C46.5952 68.9175 49.6195 65.8936 53.3498 65.8936H90.0164C93.7467 65.8936 96.7706 68.9175 96.7706 72.6478C96.7706 76.3781 93.7467 79.4025 90.0164 79.4025H53.3498ZM88.0256 62.0297H76.4724C71.6864 62.0297 67.8075 58.1503 67.8075 53.3648C67.8075 48.5794 71.6864 44.7 76.4724 44.7H88.0256C92.8111 44.7 96.6905 48.5794 96.6905 53.3648C96.6905 58.1503 92.8111 62.0297 88.0256 62.0297Z" fill="white"/>
<path fill-rule="evenodd" clip-rule="evenodd" d="M0 0H120V120H0V0ZM32.1217 40.8061C27.3255 40.8061 23.4375 36.9178 23.4375 32.1216C23.4375 27.3255 27.3255 23.4375 32.1217 23.4375H88.0866C92.8828 23.4375 96.7706 27.3255 96.7706 32.1216C96.7706 36.9178 92.8828 40.8061 88.0866 40.8061H32.1217ZM32.1217 62.0339C27.3255 62.0339 23.4375 58.1461 23.4375 53.3498C23.4375 48.5536 27.3255 44.6653 32.1217 44.6653H43.7007C48.4969 44.6653 52.3847 48.5536 52.3847 53.3498C52.3847 58.1461 48.4969 62.0339 43.7007 62.0339H32.1217ZM23.4375 72.6478C23.4375 76.3781 26.4615 79.4025 30.1918 79.4025H35.9813C39.7117 79.4025 42.7357 76.3781 42.7357 72.6478C42.7357 68.9175 39.7117 65.8936 35.9813 65.8936H30.1918C26.4615 65.8936 23.4375 68.9175 23.4375 72.6478ZM30.1918 96.7706C26.4615 96.7706 23.4375 93.7467 23.4375 90.0164C23.4375 86.2861 26.4615 83.2622 30.1918 83.2622H45.6305C49.3608 83.2622 52.3847 86.2861 52.3847 90.0164C52.3847 93.7467 49.3608 96.7706 45.6305 96.7706H30.1918ZM53.3498 79.4025C49.6195 79.4025 46.5952 76.3781 46.5952 72.6478C46.5952 68.9175 49.6195 65.8936 53.3498 65.8936H90.0164C93.7467 65.8936 96.7706 68.9175 96.7706 72.6478C96.7706 76.3781 93.7467 79.4025 90.0164 79.4025H53.3498ZM88.0256 62.0297H76.4724C71.6864 62.0297 67.8075 58.1503 67.8075 53.3648C67.8075 48.5794 71.6864 44.7 76.4724 44.7H88.0256C92.8111 44.7 96.6905 48.5794 96.6905 53.3648C96.6905 58.1503 92.8111 62.0297 88.0256 62.0297Z" fill="url(#paint0_linear_1930_2268)"/>
<path d="M32.1217 40.8061C27.3255 40.8061 23.4375 36.9178 23.4375 32.1216C23.4375 27.3255 27.3255 23.4375 32.1217 23.4375H88.0866C92.8828 23.4375 96.7706 27.3255 96.7706 32.1216C96.7706 36.9178 92.8828 40.8061 88.0866 40.8061H32.1217Z" fill="white"/>
<path d="M32.1217 62.0339C27.3255 62.0339 23.4375 58.1461 23.4375 53.3498C23.4375 48.5536 27.3255 44.6653 32.1217 44.6653H43.7007C48.4969 44.6653 52.3847 48.5536 52.3847 53.3498C52.3847 58.1461 48.4969 62.0339 43.7007 62.0339H32.1217Z" fill="white"/>
<path d="M88.0256 62.0297H76.4724C71.6864 62.0297 67.8075 58.1503 67.8075 53.3648C67.8075 48.5794 71.6864 44.7 76.4724 44.7H88.0256C92.8111 44.7 96.6905 48.5794 96.6905 53.3648C96.6905 58.1503 92.8111 62.0297 88.0256 62.0297Z" fill="white"/>
<path d="M53.3498 79.4025C49.6195 79.4025 46.5952 76.3781 46.5952 72.6478C46.5952 68.9175 49.6195 65.8936 53.3498 65.8936H90.0164C93.7467 65.8936 96.7706 68.9175 96.7706 72.6478C96.7706 76.3781 93.7467 79.4025 90.0164 79.4025H53.3498Z" fill="white"/>
<path d="M23.4375 72.6478C23.4375 76.3781 26.4615 79.4025 30.1918 79.4025H35.9813C39.7117 79.4025 42.7357 76.3781 42.7357 72.6478C42.7357 68.9175 39.7117 65.8936 35.9813 65.8936H30.1918C26.4615 65.8936 23.4375 68.9175 23.4375 72.6478Z" fill="white"/>
<path d="M30.1918 96.7706C26.4615 96.7706 23.4375 93.7467 23.4375 90.0164C23.4375 86.2861 26.4615 83.2622 30.1918 83.2622H45.6305C49.3608 83.2622 52.3847 86.2861 52.3847 90.0164C52.3847 93.7467 49.3608 96.7706 45.6305 96.7706H30.1918Z" fill="white"/>
</g>
<defs>
<linearGradient id="paint0_linear_1930_2268" x1="124.816" y1="5.05006" x2="-19.9293" y2="82.7783" gradientUnits="userSpaceOnUse">
<stop stop-color="#274EB5"/>
<stop offset="1" stop-color="#3468F2"/>
</linearGradient>
</defs>
</svg>
