<svg width="45" height="45" viewBox="0 0 45 45" fill="none" xmlns="http://www.w3.org/2000/svg">
<path fill-rule="evenodd" clip-rule="evenodd" d="M3.125 0H41.875C43.6009 0 45 1.39911 45 3.125V41.875C45 43.6009 43.6009 45 41.875 45H3.125C1.39911 45 0 43.6009 0 41.875V3.125C0 1.39911 1.39911 0 3.125 0ZM12.0298 8.7805C10.2353 8.7805 8.78044 10.2353 8.78044 12.0299C8.78044 13.1796 9.37763 14.19 10.2787 14.7675C10.7795 15.0816 11.3718 15.2632 12.0066 15.2632H32.9934C33.6269 15.2632 34.2182 15.0823 34.7184 14.7693C35.6211 14.1921 36.2195 13.1808 36.2195 12.0299C36.2195 10.2353 34.7647 8.7805 32.9701 8.7805H12.0298ZM8.78044 19.9727C8.78044 18.1782 10.2353 16.7234 12.0298 16.7234H16.3623C17.3981 16.7234 18.3207 17.208 18.9157 17.9629C19.3477 18.5156 19.6053 19.2113 19.6053 19.9671C19.6053 21.6326 18.355 23.0061 16.7418 23.2002C16.6173 23.2147 16.4907 23.2221 16.3623 23.2221H12.0298C10.2353 23.2221 8.78044 21.7673 8.78044 19.9727ZM32.9701 23.2221H28.6376C26.8431 23.2221 25.3883 21.7673 25.3883 19.9727C25.3883 18.1782 26.8431 16.7234 28.6376 16.7234H32.9701C34.7647 16.7234 36.2195 18.1782 36.2195 19.9727C36.2195 21.7673 34.7647 23.2221 32.9701 23.2221ZM17.0844 36.2196H11.3078C9.91194 36.2196 8.78044 35.0881 8.78044 33.6922C8.78044 32.8536 9.18898 32.1103 9.81791 31.6506C10.2315 31.3569 10.737 31.1842 11.2829 31.1842H17.0724C18.4713 31.1842 19.6053 32.3182 19.6053 33.7171C19.6053 33.9244 19.5803 34.126 19.5334 34.3188C19.2546 35.4115 18.2639 36.2196 17.0844 36.2196ZM10.8229 24.7127C9.65903 24.9389 8.78044 25.9636 8.78044 27.1936C8.78044 28.5893 9.91194 29.7208 11.3078 29.7208H13.4739C14.117 29.7208 14.7039 29.4807 15.1499 29.0852C15.6638 28.6217 15.9868 27.9505 15.9868 27.2039C15.9868 25.8051 14.8528 24.6711 13.4539 24.6711H11.2829C11.1258 24.6711 10.972 24.6853 10.8229 24.7127ZM33.6922 29.7208H19.9727C18.5769 29.7208 17.4454 28.5893 17.4454 27.1936C17.4454 26.3138 17.8949 25.5391 18.5767 25.0865C18.9758 24.8239 19.4536 24.6711 19.9671 24.6711H33.7171C33.8742 24.6711 34.028 24.6854 34.1772 24.7127C35.341 24.9389 36.2195 25.9636 36.2195 27.1936C36.2195 28.5893 35.088 29.7208 33.6922 29.7208Z" fill="#AFBCF1"/>
</svg>
