<svg width="27" height="27" viewBox="0 0 27 27" fill="none" xmlns="http://www.w3.org/2000/svg">
<path fill-rule="evenodd" clip-rule="evenodd" d="M2.57435 0.163742H24.9632C25.9604 0.163742 26.7688 0.972117 26.7688 1.9693V24.3582C26.7688 25.3554 25.9604 26.1637 24.9632 26.1637H2.57435C1.57717 26.1637 0.768799 25.3554 0.768799 24.3582V1.9693C0.768799 0.972117 1.57717 0.163742 2.57435 0.163742ZM7.71936 5.23692C6.6825 5.23692 5.84194 6.07748 5.84194 7.11434C5.84194 7.77865 6.18698 8.36238 6.70763 8.69609C6.99697 8.87755 7.33919 8.98247 7.70592 8.98247H19.8317C20.1977 8.98247 20.5393 8.87796 20.8283 8.69714C21.3499 8.3636 21.6956 7.77934 21.6956 7.11434C21.6956 6.07748 20.8551 5.23692 19.8182 5.23692H7.71936ZM5.84194 11.7036C5.84194 10.6667 6.6825 9.82614 7.71936 9.82614H10.2226C10.821 9.82614 11.3541 10.1062 11.6979 10.5423C11.9475 10.8616 12.0963 11.2636 12.0963 11.7003C12.0963 12.6626 11.3739 13.4562 10.4418 13.5683C10.3699 13.5767 10.2967 13.581 10.2226 13.581H7.71936C6.6825 13.581 5.84194 12.7404 5.84194 11.7036ZM19.8182 13.581H17.315C16.2781 13.581 15.4376 12.7404 15.4376 11.7036C15.4376 10.6667 16.2781 9.82614 17.315 9.82614H19.8182C20.8551 9.82614 21.6956 10.6667 21.6956 11.7036C21.6956 12.7404 20.8551 13.581 19.8182 13.581ZM10.6398 21.0906H7.30217C6.4957 21.0906 5.84194 20.4368 5.84194 19.6304C5.84194 19.1458 6.07799 18.7164 6.44137 18.4507C6.68032 18.281 6.9724 18.1813 7.28779 18.1813H10.6328C11.4411 18.1813 12.0963 18.8365 12.0963 19.6447C12.0963 19.7645 12.0819 19.881 12.0547 19.9924C11.8937 20.6237 11.3213 21.0906 10.6398 21.0906ZM7.02201 14.4422C6.34957 14.5729 5.84194 15.1649 5.84194 15.8756C5.84194 16.682 6.4957 17.3358 7.30217 17.3358H8.55374C8.92526 17.3358 9.26437 17.197 9.52209 16.9685C9.819 16.7007 10.0056 16.3129 10.0056 15.8816C10.0056 15.0733 9.35042 14.4181 8.54219 14.4181H7.28779C7.19703 14.4181 7.1082 14.4264 7.02201 14.4422ZM20.2354 17.3358H12.3086C11.5021 17.3358 10.8484 16.682 10.8484 15.8756C10.8484 15.3673 11.1081 14.9197 11.502 14.6581C11.7326 14.5064 12.0087 14.4181 12.3054 14.4181H20.2498C20.3406 14.4181 20.4294 14.4264 20.5156 14.4422C21.188 14.5729 21.6956 15.165 21.6956 15.8756C21.6956 16.682 21.0419 17.3358 20.2354 17.3358Z" fill="white"/>
</svg>
