<svg width="413" height="312" viewBox="0 0 413 312" fill="none" xmlns="http://www.w3.org/2000/svg">
<g filter="url(#filter0_f_661_3698)">
<path d="M135.424 292.584H277.925L283.813 296.651H129.535L135.424 292.584Z" fill="black"/>
</g>
<path d="M213.836 239.355V252.023C213.836 255.045 211.216 257.543 208.072 257.543H205.045C201.843 257.543 199.281 255.103 199.281 252.023V239.355H182.747V283.46H230.486V239.355H213.836Z" fill="url(#paint0_linear_661_3698)"/>
<path d="M206.5 283.46H197.243H133.203C132.796 283.46 132.213 283.809 131.864 284.216L126.508 291.131C126.217 291.537 126.275 291.886 126.683 291.886H203.822H206.558V283.46H206.5Z" fill="#D1D3D4"/>
<path d="M206.5 283.46H215.756H279.796C280.204 283.46 280.786 283.809 281.135 284.216L286.491 291.131C286.783 291.537 286.724 291.886 286.317 291.886H209.178H206.441V283.46H206.5Z" fill="#D1D3D4"/>
<path d="M182.63 283.46L180.302 291.886H232.698L230.369 283.46H182.63Z" fill="#C2C4C5"/>
<path d="M286.725 292.235L284.745 295.663C284.629 295.896 284.163 296.07 283.756 296.07H216.281H196.778H129.303C128.895 296.07 128.43 295.896 128.313 295.663L126.334 292.235C126.217 292.061 126.45 291.886 126.858 291.886H203.822H209.236H286.143C286.55 291.886 286.783 292.061 286.725 292.235Z" fill="#7E7F7C"/>
<path d="M133.785 296.07L134.6 296.884C134.658 296.942 134.775 297 134.833 297H146.419C146.593 297 146.71 296.884 146.71 296.71V296.07H133.785Z" fill="#9C9E99"/>
<path d="M279.214 296.07L278.399 296.884C278.341 296.942 278.225 297 278.166 297H266.639C266.465 297 266.348 296.884 266.348 296.709V296.07H279.214Z" fill="#9C9E99"/>
<path d="M286.143 291.886H209.178H203.764H126.858C126.45 291.886 126.217 292.061 126.334 292.235L126.683 292.816H286.434L286.783 292.235C286.783 292.061 286.55 291.886 286.143 291.886Z" fill="url(#paint1_linear_661_3698)"/>
<path d="M6.34524 244.527C3.0268 244.527 0.290527 241.854 0.290527 238.483V6.33396C0.290527 3.0217 2.96858 0.290527 6.34524 0.290527H406.654C409.972 0.290527 412.708 2.96359 412.708 6.33396V238.541C412.708 241.854 410.03 244.585 406.654 244.585H6.34524V244.527Z" fill="url(#paint2_linear_661_3698)"/>
<path d="M406.654 0.5811C409.798 0.5811 412.418 3.13794 412.418 6.33399V238.541C412.418 241.679 409.856 244.294 406.654 244.294H6.3458C3.20202 244.294 0.582182 241.737 0.582182 238.541V6.33399C0.582182 3.19605 3.1438 0.5811 6.3458 0.5811H406.654ZM406.654 0H6.3458C2.85271 0 0 2.84739 0 6.33399V238.541C0 242.028 2.85271 244.875 6.3458 244.875H406.654C410.147 244.875 413 242.028 413 238.541V6.33399C413 2.84739 410.147 0 406.654 0Z" fill="#9C9E99"/>
<path d="M13.3319 231.743C13.2155 231.743 13.1572 231.626 13.1572 231.568V13.3073C13.1572 13.1911 13.2737 13.133 13.3319 13.133H399.668C399.784 13.133 399.843 13.2492 399.843 13.3073V231.568C399.843 231.685 399.726 231.743 399.668 231.743H13.3319Z" fill="#026BAF"/>
<path d="M399.261 13.6558V231.103H13.74V13.6558H399.261ZM399.669 12.4936H13.3325C12.925 12.4936 12.5757 12.8423 12.5757 13.249V231.568C12.5757 231.975 12.925 232.324 13.3325 232.324H399.669C400.076 232.324 400.425 231.975 400.425 231.568V13.3071C400.425 12.8423 400.076 12.4936 399.669 12.4936Z" fill="#9C9E99"/>
<path d="M399.61 13.3653H13.3901V231.51H399.61V13.3653Z" fill="#171821"/>
<path d="M206.5 9.29769C208.011 9.29769 209.236 8.07491 209.236 6.56653C209.236 5.05814 208.011 3.83536 206.5 3.83536C204.989 3.83536 203.764 5.05814 203.764 6.56653C203.764 8.07491 204.989 9.29769 206.5 9.29769Z" fill="#C9C9C9"/>
<path d="M206.5 9.00708C207.85 9.00708 208.945 7.91437 208.945 6.56646C208.945 5.21854 207.85 4.12584 206.5 4.12584C205.149 4.12584 204.055 5.21854 204.055 6.56646C204.055 7.91437 205.149 9.00708 206.5 9.00708Z" fill="#7E7F7C"/>
<path d="M206.5 7.67047C207.111 7.67047 207.606 7.17616 207.606 6.56638C207.606 5.95661 207.111 5.4623 206.5 5.4623C205.889 5.4623 205.394 5.95661 205.394 6.56638C205.394 7.17616 205.889 7.67047 206.5 7.67047Z" fill="#5B5B5A"/>
<path d="M405.665 233.834C407.469 233.834 408.925 235.287 408.925 237.089C408.925 238.89 407.469 240.343 405.665 240.343C403.86 240.343 402.404 238.89 402.404 237.089C402.404 235.287 403.86 233.834 405.665 233.834ZM405.665 233.544C403.743 233.544 402.113 235.113 402.113 237.089C402.113 239.006 403.685 240.633 405.665 240.633C407.586 240.633 409.216 239.064 409.216 237.089C409.216 235.113 407.586 233.544 405.665 233.544Z" fill="#9C9E99"/>
<path d="M406.246 235.694V236.217C406.479 236.391 406.654 236.682 406.654 237.031C406.654 237.612 406.188 238.019 405.664 238.019C405.14 238.019 404.674 237.554 404.674 237.031C404.674 236.682 404.849 236.391 405.082 236.217V235.694C404.558 235.927 404.15 236.45 404.15 237.089C404.15 237.902 404.791 238.6 405.664 238.6C406.537 238.6 407.178 237.96 407.178 237.089C407.178 236.45 406.77 235.927 406.246 235.694Z" fill="#7E7F7C"/>
<path d="M405.897 235.404H405.432V237.321H405.897V235.404Z" fill="#7E7F7C"/>
<path d="M405.665 211.404C406.083 211.404 406.421 211.066 406.421 210.649C406.421 210.232 406.083 209.894 405.665 209.894C405.247 209.894 404.908 210.232 404.908 210.649C404.908 211.066 405.247 211.404 405.665 211.404Z" fill="#9D9F9A"/>
<path d="M405.665 203.269C406.083 203.269 406.421 202.931 406.421 202.514C406.421 202.096 406.083 201.758 405.665 201.758C405.247 201.758 404.908 202.096 404.908 202.514C404.908 202.931 405.247 203.269 405.665 203.269Z" fill="#9D9F9A"/>
<path d="M405.665 195.075C406.083 195.075 406.421 194.737 406.421 194.32C406.421 193.903 406.083 193.564 405.665 193.564C405.247 193.564 404.908 193.903 404.908 194.32C404.908 194.737 405.247 195.075 405.665 195.075Z" fill="#9D9F9A"/>
<path d="M405.665 219.54C406.083 219.54 406.421 219.202 406.421 218.784C406.421 218.367 406.083 218.029 405.665 218.029C405.247 218.029 404.908 218.367 404.908 218.784C404.908 219.202 405.247 219.54 405.665 219.54Z" fill="#9D9F9A"/>
<defs>
<filter id="filter0_f_661_3698" x="114.604" y="277.652" width="184.141" height="33.9306" filterUnits="userSpaceOnUse" color-interpolation-filters="sRGB">
<feFlood flood-opacity="0" result="BackgroundImageFix"/>
<feBlend mode="normal" in="SourceGraphic" in2="BackgroundImageFix" result="shape"/>
<feGaussianBlur stdDeviation="7.46573" result="effect1_foregroundBlur_661_3698"/>
</filter>
<linearGradient id="paint0_linear_661_3698" x1="206.503" y1="239.377" x2="206.503" y2="283.462" gradientUnits="userSpaceOnUse">
<stop stop-color="#727173"/>
<stop offset="0.0695792" stop-color="#88878A"/>
<stop offset="0.1564" stop-color="#A2A1A4"/>
<stop offset="0.2335" stop-color="#B3B3B7"/>
<stop offset="0.2925" stop-color="#BBBBBF"/>
<stop offset="1" stop-color="#BBBBBF"/>
</linearGradient>
<linearGradient id="paint1_linear_661_3698" x1="126.279" y1="292.337" x2="286.726" y2="292.337" gradientUnits="userSpaceOnUse">
<stop stop-color="#BBBBBF"/>
<stop offset="0.2" stop-color="#F5F5F5"/>
<stop offset="0.8" stop-color="#F5F5F5"/>
<stop offset="1" stop-color="#BBBBBF"/>
</linearGradient>
<linearGradient id="paint2_linear_661_3698" x1="233.478" y1="275.123" x2="179.721" y2="-30.3152" gradientUnits="userSpaceOnUse">
<stop stop-color="#BEC0BD"/>
<stop offset="1" stop-color="#E6E8E5"/>
</linearGradient>
</defs>
</svg>
