<svg width="96" height="64" viewBox="0 0 96 64" fill="none" xmlns="http://www.w3.org/2000/svg">
<path d="M96 -2.04237e-06L96 21.4118C96 29.4118 94.2806 36.7843 90.8418 43.5294C87.403 50.2745 81.5761 57.098 73.3612 64L58.4597 54.3529C63.2358 50.4314 66.8657 46.7451 69.3493 43.2941C71.8328 39.8431 73.4567 36.3137 74.2209 32.7059L55.8806 32.7059L55.8806 -5.54972e-06L96 -2.04237e-06ZM40.1194 -6.92761e-06L40.1194 21.4118C40.1194 29.4117 38.4 36.7843 34.9612 43.5294C31.5224 50.2745 25.6955 57.098 17.4806 64L2.57912 54.3529C7.35524 50.4314 10.9851 46.7451 13.4687 43.2941C15.9522 39.8431 17.5761 36.3137 18.3403 32.7059L6.73869e-06 32.7059L9.59793e-06 -1.0435e-05L40.1194 -6.92761e-06Z" fill="#3F4253"/>
</svg>
