<svg width="96" height="64" viewBox="0 0 96 64" fill="none" xmlns="http://www.w3.org/2000/svg">
<path d="M0 64V42.5882C0 34.5882 1.7194 27.2157 5.15821 20.4706C8.59701 13.7255 14.4239 6.90196 22.6388 0L37.5403 9.64706C32.7642 13.5686 29.1343 17.2549 26.6507 20.7059C24.1672 24.1569 22.5433 27.6863 21.7791 31.2941H40.1194V64H0ZM55.8806 64V42.5882C55.8806 34.5882 57.6 27.2157 61.0388 20.4706C64.4776 13.7255 70.3045 6.90196 78.5194 0L93.4209 9.64706C88.6448 13.5686 85.0149 17.2549 82.5313 20.7059C80.0478 24.1569 78.4239 27.6863 77.6597 31.2941H96V64H55.8806Z" fill="#3F4253"/>
</svg>
