<svg width="146" height="43" viewBox="0 0 146 43" fill="none" xmlns="http://www.w3.org/2000/svg">
<path fill-rule="evenodd" clip-rule="evenodd" d="M5.42593 2.83333H37.5741C39.0059 2.83333 40.1667 3.99408 40.1667 5.42593V37.5741C40.1667 39.0059 39.0059 40.1667 37.5741 40.1667H5.42593C3.99408 40.1667 2.83333 39.0059 2.83333 37.5741V5.42593C2.83333 3.99408 3.99408 2.83333 5.42593 2.83333ZM12.8136 10.1179C11.3248 10.1179 10.1178 11.3249 10.1178 12.8137C10.1178 13.7676 10.6133 14.6057 11.3609 15.0849C11.7763 15.3455 12.2677 15.4961 12.7943 15.4961H30.2057C30.7312 15.4961 31.2218 15.346 31.6367 15.0864C32.3856 14.6075 32.8821 13.7686 32.8821 12.8137C32.8821 11.3249 31.6752 10.1179 30.1863 10.1179H12.8136ZM10.1178 19.4033C10.1178 17.9145 11.3248 16.7075 12.8136 16.7075H16.408C17.2673 16.7075 18.0327 17.1096 18.5263 17.7359C18.8848 18.1944 19.0984 18.7716 19.0984 19.3986C19.0984 20.7804 18.0612 21.9199 16.7228 22.0809C16.6195 22.0929 16.5145 22.0991 16.408 22.0991H12.8136C11.3248 22.0991 10.1178 20.8921 10.1178 19.4033ZM30.1863 22.0991H26.592C25.1031 22.0991 23.8962 20.8921 23.8962 19.4033C23.8962 17.9145 25.1031 16.7075 26.592 16.7075H30.1863C31.6752 16.7075 32.8821 17.9145 32.8821 19.4033C32.8821 20.8921 31.6752 22.0991 30.1863 22.0991ZM17.007 32.8822H12.2146C11.0566 32.8822 10.1178 31.9434 10.1178 30.7854C10.1178 30.0896 10.4568 29.473 10.9786 29.0916C11.3217 28.8479 11.7411 28.7047 12.1939 28.7047H16.9971C18.1576 28.7047 19.0984 29.6455 19.0984 30.8061C19.0984 30.9781 19.0778 31.1452 19.0388 31.3052C18.8076 32.2118 17.9856 32.8822 17.007 32.8822ZM11.8123 23.3357C10.8468 23.5234 10.1178 24.3735 10.1178 25.3939C10.1178 26.5519 11.0566 27.4906 12.2146 27.4906H14.0117C14.5452 27.4906 15.0321 27.2914 15.4022 26.9633C15.8285 26.5787 16.0965 26.0219 16.0965 25.4025C16.0965 24.242 15.1557 23.3012 13.9951 23.3012H12.1939C12.0636 23.3012 11.9361 23.313 11.8123 23.3357ZM30.7854 27.4906H19.4033C18.2453 27.4906 17.3065 26.5519 17.3065 25.3939C17.3065 24.6641 17.6795 24.0213 18.2451 23.6458C18.5763 23.4279 18.9727 23.3012 19.3987 23.3012H30.8061C30.9364 23.3012 31.064 23.313 31.1877 23.3358C32.1532 23.5234 32.8821 24.3735 32.8821 25.3939C32.8821 26.5519 31.9434 27.4906 30.7854 27.4906Z" fill="#DDF2FF"/>
<path d="M54.5 15.5L66.5 27.5M66.5 15.5L54.5 27.5" stroke="#DDF2FF" stroke-width="3"/>
<path d="M80.1046 27.7188V14.7358C80.1046 14.2315 80.3816 13.9545 80.8858 13.9545H88.7836C89.2878 13.9545 89.5648 14.2315 89.5648 14.7358V15.3821C89.5648 15.8864 89.2878 16.1634 88.7836 16.1634H82.7395V20.1122H88.2935C88.7978 20.1122 89.0748 20.3892 89.0748 20.8935V21.5398C89.0748 22.044 88.7978 22.321 88.2935 22.321H82.7395V26.2912H88.8404C89.3446 26.2912 89.6216 26.5682 89.6216 27.0724V27.7188C89.6216 28.223 89.3446 28.5 88.8404 28.5H80.8858C80.3816 28.5 80.1046 28.223 80.1046 27.7188ZM92.253 27.7188V14.7358C92.253 14.2315 92.53 13.9545 93.0343 13.9545H97.7076C101.046 13.9545 102.835 15.8295 102.835 18.6065C102.835 20.581 101.933 22.044 100.222 22.733L102.857 27.5696C103.148 28.1094 102.921 28.5 102.31 28.5H101.053C100.619 28.5 100.335 28.3295 100.129 27.946L97.5726 23.1733H94.888V27.7188C94.888 28.223 94.611 28.5 94.1067 28.5H93.0343C92.53 28.5 92.253 28.223 92.253 27.7188ZM94.888 20.9858H97.3169C99.2701 20.9858 100.151 20.1548 100.151 18.6065C100.151 17.0582 99.2701 16.1562 97.3027 16.1562H94.888V20.9858ZM105.261 27.7188V14.7358C105.261 14.2315 105.538 13.9545 106.042 13.9545H110.715C114.053 13.9545 115.843 15.8295 115.843 18.6065C115.843 20.581 114.941 22.044 113.23 22.733L115.865 27.5696C116.156 28.1094 115.928 28.5 115.318 28.5H114.061C113.627 28.5 113.343 28.3295 113.137 27.946L110.58 23.1733H107.896V27.7188C107.896 28.223 107.619 28.5 107.115 28.5H106.042C105.538 28.5 105.261 28.223 105.261 27.7188ZM107.896 20.9858H110.325C112.278 20.9858 113.159 20.1548 113.159 18.6065C113.159 17.0582 112.278 16.1562 110.311 16.1562H107.896V20.9858ZM131.266 21.2273C131.266 25.929 128.396 28.6989 124.583 28.6989C120.762 28.6989 117.899 25.9219 117.899 21.2273C117.899 16.5256 120.762 13.7557 124.583 13.7557C128.396 13.7557 131.266 16.5256 131.266 21.2273ZM128.617 21.2273C128.617 17.9176 126.955 16.1207 124.583 16.1207C122.218 16.1207 120.548 17.9176 120.548 21.2273C120.548 24.5369 122.218 26.3338 124.583 26.3338C126.955 26.3338 128.617 24.5369 128.617 21.2273ZM133.757 27.7188V14.7358C133.757 14.2315 134.034 13.9545 134.538 13.9545H139.211C142.55 13.9545 144.339 15.8295 144.339 18.6065C144.339 20.581 143.437 22.044 141.726 22.733L144.361 27.5696C144.652 28.1094 144.425 28.5 143.814 28.5H142.557C142.123 28.5 141.839 28.3295 141.633 27.946L139.077 23.1733H136.392V27.7188C136.392 28.223 136.115 28.5 135.611 28.5H134.538C134.034 28.5 133.757 28.223 133.757 27.7188ZM136.392 20.9858H138.821C140.774 20.9858 141.655 20.1548 141.655 18.6065C141.655 17.0582 140.774 16.1562 138.807 16.1562H136.392V20.9858Z" fill="#D2E5F1"/>
</svg>
