<svg width="134" height="26" viewBox="0 0 134 26" fill="none" xmlns="http://www.w3.org/2000/svg">
<path d="M37.7047 18.7383V6.0799C37.7047 5.58825 37.9741 5.31818 38.4646 5.31818H43.0097C46.2631 5.31818 47.9969 7.30558 47.9969 10.0131C47.9969 12.7415 46.2424 14.7081 42.9751 14.7081H40.2674V18.7383C40.2674 19.2299 39.998 19.5 39.5076 19.5H38.4646C37.9741 19.5 37.7047 19.2299 37.7047 18.7383ZM40.2674 12.5961H42.6298C44.5362 12.5961 45.3859 11.5227 45.3859 10.0131C45.3859 8.50355 44.5362 7.46484 42.616 7.46484H40.2674V12.5961Z" fill="white"/>
<path d="M56.8747 15.0266V9.62536C56.8747 9.1337 57.1441 8.86364 57.6346 8.86364H58.6154C59.1058 8.86364 59.3752 9.1337 59.3752 9.62536V18.7383C59.3752 19.2299 59.1058 19.5 58.6154 19.5H57.7105C57.2201 19.5 56.9507 19.2299 56.9507 18.7383V17.6096H56.8402C56.3567 18.8006 55.2377 19.6385 53.6489 19.6385C51.5629 19.6385 50.1123 18.1912 50.1123 15.636V9.62536C50.1123 9.1337 50.3817 8.86364 50.8721 8.86364H51.853C52.3434 8.86364 52.6128 9.1337 52.6128 9.62536V15.2482C52.6128 16.5985 53.4141 17.4503 54.616 17.4503C55.7212 17.4503 56.8747 16.647 56.8747 15.0266Z" fill="white"/>
<path d="M64.4471 6.0799V18.7383C64.4471 19.2299 64.1777 19.5 63.6872 19.5H62.7064C62.2159 19.5 61.9466 19.2299 61.9466 18.7383V6.0799C61.9466 5.58825 62.2159 5.31818 62.7064 5.31818H63.6872C64.1777 5.31818 64.4471 5.58825 64.4471 6.0799Z" fill="white"/>
<path d="M74.5682 11.7651L73.7739 11.8551C73.3387 11.9036 73.1039 11.7097 72.8483 11.3427C72.5305 10.9134 71.9848 10.5948 71.1698 10.5948C70.1267 10.5948 69.3324 11.0934 69.3393 11.8136C69.3324 12.4299 69.7606 12.8038 70.8382 13.0462L72.648 13.4339C74.6511 13.8702 75.6251 14.7981 75.632 16.3146C75.6251 18.3297 73.7532 19.7077 71.1007 19.7077C68.8765 19.7077 67.3568 18.8629 66.7697 17.3949C66.5694 16.9032 66.8595 16.5639 67.3776 16.5154L68.3239 16.4254C68.766 16.3839 68.9939 16.5847 69.2357 16.9725C69.588 17.5334 70.2234 17.8173 71.0938 17.8173C72.2819 17.8173 73.0693 17.2702 73.0693 16.5431C73.0693 15.9407 72.6134 15.546 71.6395 15.3313L69.8297 14.9505C67.792 14.5281 66.8388 13.5032 66.8457 11.9521C66.8388 9.98544 68.5795 8.72514 71.1352 8.72514C73.2282 8.72514 74.5821 9.54226 75.1623 10.8718C75.3695 11.3635 75.0932 11.7097 74.5682 11.7651Z" fill="white"/>
<path d="M82.391 19.7077C79.1928 19.7077 77.238 17.5819 77.238 14.2441C77.238 10.9618 79.2204 8.72514 82.2597 8.72514C84.8708 8.72514 87.1088 10.3663 87.1088 14.0987V14.1056C87.1088 14.5973 86.8394 14.8674 86.349 14.8674H79.7178C79.7385 16.6886 80.8092 17.755 82.4255 17.755C83.2544 17.755 83.9382 17.478 84.3596 16.9379C84.629 16.5847 84.8777 16.4047 85.3059 16.4531L86.1486 16.5501C86.6805 16.6124 86.9568 16.9032 86.7841 17.2979C86.1348 18.7729 84.5599 19.7077 82.391 19.7077ZM79.7247 13.1777H84.7119C84.6981 11.7305 83.731 10.6779 82.2943 10.6779C80.8023 10.6779 79.8007 11.8205 79.7247 13.1777Z" fill="white"/>
<path d="M98.6806 9.2168H97.6928C97.2438 9.2168 97.0366 8.99521 96.8501 8.5728C96.484 7.76261 95.586 7.29865 94.3565 7.29865C92.7539 7.29865 91.8007 8.08114 91.7938 9.14755C91.78 10.3317 93.0371 10.8233 94.1976 11.1003L95.5238 11.4327C97.6513 11.9382 99.6752 13.06 99.6821 15.5183C99.6752 18.0181 97.7066 19.7147 94.315 19.7147C91.3448 19.7147 89.3555 18.4267 88.9134 16.1138C88.8167 15.6014 89.1206 15.3105 89.6317 15.3105H90.661C91.1169 15.3105 91.3241 15.546 91.4829 15.9822C91.8698 17.014 92.9542 17.5195 94.2943 17.5195C95.9659 17.5195 97.1126 16.7093 97.1195 15.4975C97.1126 14.3965 96.1041 13.9187 94.5775 13.5309L92.9681 13.1154C90.6402 12.513 89.1966 11.3427 89.1966 9.30682C89.1897 6.80007 91.4208 5.12429 94.391 5.12429C97.0573 5.12429 98.9569 6.45383 99.392 8.41353C99.5025 8.91903 99.1917 9.2168 98.6806 9.2168Z" fill="white"/>
<path d="M103.41 23.4886C103.093 23.4886 102.789 23.4609 102.519 23.4194C102.029 23.3363 101.863 22.9624 102.001 22.4846L102.153 21.9721C102.291 21.5082 102.595 21.3766 103.079 21.4251C103.783 21.4874 104.295 21.2243 104.647 20.2963L104.861 19.7216L101.324 9.73615C101.138 9.20987 101.38 8.86364 101.939 8.86364H103.003C103.445 8.86364 103.728 9.07138 103.859 9.50071L106.111 16.8963H106.222L108.481 9.50071C108.612 9.07138 108.895 8.86364 109.337 8.86364H110.408C110.967 8.86364 111.209 9.20987 111.022 9.73615L107.085 20.788C106.484 22.4846 105.358 23.4886 103.41 23.4886Z" fill="white"/>
<path d="M115.564 13.2678V18.7383C115.564 19.2299 115.295 19.5 114.804 19.5H113.823C113.333 19.5 113.064 19.2299 113.064 18.7383V9.62536C113.064 9.1337 113.333 8.86364 113.823 8.86364H114.694C115.184 8.86364 115.454 9.1337 115.454 9.62536V10.671H115.578C116.062 9.48686 117.153 8.72514 118.742 8.72514C120.931 8.72514 122.382 10.1793 122.375 12.7276V18.7383C122.375 19.2299 122.106 19.5 121.615 19.5H120.634C120.144 19.5 119.874 19.2299 119.874 18.7383V13.1154C119.874 11.6958 119.101 10.8441 117.809 10.8441C116.49 10.8441 115.564 11.7305 115.564 13.2678Z" fill="white"/>
<path d="M129.545 19.7077C126.374 19.7077 124.461 17.4434 124.461 14.2234C124.461 10.9757 126.423 8.72514 129.531 8.72514C131.797 8.72514 133.461 9.88849 133.952 11.7235C134.09 12.236 133.779 12.5476 133.261 12.5476H132.356C131.914 12.5476 131.693 12.3329 131.5 11.9244C131.161 11.225 130.505 10.7472 129.566 10.7472C128.025 10.7472 126.996 12.0352 126.996 14.1818C126.996 16.3562 128.005 17.6649 129.566 17.6649C130.443 17.6649 131.141 17.2495 131.5 16.4947C131.693 16.0792 131.921 15.8645 132.363 15.8645H133.261C133.786 15.8645 134.083 16.1346 133.98 16.5778C133.531 18.4474 131.921 19.7077 129.545 19.7077Z" fill="white"/>
<path fill-rule="evenodd" clip-rule="evenodd" d="M1.80106 0H24.1342C25.1289 0 25.9353 0.808375 25.9353 1.80556V24.1944C25.9353 25.1916 25.1289 26 24.1342 26H1.80106C0.806363 26 0 25.1916 0 24.1944V1.80556C0 0.808375 0.806363 0 1.80106 0ZM6.93326 5.07318C5.89898 5.07318 5.06052 5.91374 5.06052 6.95059C5.06052 7.61491 5.4047 8.19864 5.92405 8.53235C6.21267 8.71381 6.55404 8.81873 6.91986 8.81873H19.0154C19.3806 8.81873 19.7213 8.71421 20.0096 8.5334C20.5298 8.19986 20.8747 7.6156 20.8747 6.95059C20.8747 5.91374 20.0363 5.07318 19.002 5.07318H6.93326ZM5.06052 11.5398C5.06052 10.503 5.89898 9.6624 6.93326 9.6624H9.43026C10.0272 9.6624 10.5589 9.94241 10.9019 10.3786C11.1509 10.6979 11.2993 11.0998 11.2993 11.5366C11.2993 12.4989 10.5787 13.2924 9.64897 13.4046C9.57722 13.4129 9.50424 13.4172 9.43026 13.4172H6.93326C5.89898 13.4172 5.06052 12.5767 5.06052 11.5398ZM19.002 13.4172H16.505C15.4707 13.4172 14.6323 12.5767 14.6323 11.5398C14.6323 10.503 15.4707 9.6624 16.505 9.6624H19.002C20.0363 9.6624 20.8747 10.503 20.8747 11.5398C20.8747 12.5767 20.0363 13.4172 19.002 13.4172ZM9.84641 20.9269H6.51711C5.71265 20.9269 5.06052 20.2731 5.06052 19.4666C5.06052 18.9821 5.29597 18.5526 5.65846 18.287C5.89681 18.1173 6.18817 18.0175 6.50277 18.0175H9.83949C10.6457 18.0175 11.2993 18.6728 11.2993 19.481C11.2993 19.6008 11.2849 19.7172 11.2579 19.8286C11.0972 20.46 10.5262 20.9269 9.84641 20.9269ZM6.23765 14.2785C5.56689 14.4091 5.06052 15.0012 5.06052 15.7118C5.06052 16.5183 5.71265 17.172 6.51711 17.172H7.76557C8.13616 17.172 8.47443 17.0333 8.73151 16.8048C9.02768 16.537 9.21384 16.1492 9.21384 15.7178C9.21384 14.9096 8.56027 14.2544 7.75404 14.2544H6.50277C6.41224 14.2544 6.32362 14.2626 6.23765 14.2785ZM19.4182 17.172H11.5111C10.7066 17.172 10.0545 16.5183 10.0545 15.7118C10.0545 15.2035 10.3135 14.7559 10.7065 14.4944C10.9365 14.3427 11.2119 14.2544 11.5079 14.2544H19.4325C19.5231 14.2544 19.6117 14.2627 19.6977 14.2785C20.3684 14.4092 20.8747 15.0012 20.8747 15.7118C20.8747 16.5183 20.2226 17.172 19.4182 17.172Z" fill="white"/>
</svg>
