<svg width="363" height="70" viewBox="0 0 363 70" fill="none" xmlns="http://www.w3.org/2000/svg">
<path d="M102.14 50.4492V16.369C102.14 15.0453 102.87 14.3182 104.199 14.3182H116.511C125.325 14.3182 130.021 19.6689 130.021 26.9585C130.021 34.304 125.269 39.5987 116.418 39.5987H109.083V50.4492C109.083 51.7729 108.353 52.5 107.024 52.5H104.199C102.87 52.5 102.14 51.7729 102.14 50.4492ZM109.083 33.9125H115.482C120.647 33.9125 122.948 31.0227 122.948 26.9585C122.948 22.8942 120.647 20.0977 115.445 20.0977H109.083V33.9125Z" fill="#EBF7FF"/>
<path d="M154.071 40.4563V25.9144C154.071 24.5907 154.801 23.8636 156.129 23.8636H158.787C160.115 23.8636 160.845 24.5907 160.845 25.9144V50.4492C160.845 51.7729 160.115 52.5 158.787 52.5H156.335C155.007 52.5 154.277 51.7729 154.277 50.4492V47.4103H153.978C152.668 50.617 149.636 52.8729 145.333 52.8729C139.682 52.8729 135.752 48.9764 135.752 42.0969V25.9144C135.752 24.5907 136.482 23.8636 137.81 23.8636H140.467C141.796 23.8636 142.526 24.5907 142.526 25.9144V41.0529C142.526 44.6884 144.696 46.9815 147.952 46.9815C150.946 46.9815 154.071 44.8189 154.071 40.4563Z" fill="#EBF7FF"/>
<path d="M174.584 16.369V50.4492C174.584 51.7729 173.854 52.5 172.526 52.5H169.869C168.54 52.5 167.81 51.7729 167.81 50.4492V16.369C167.81 15.0453 168.54 14.3182 169.869 14.3182H172.526C173.854 14.3182 174.584 15.0453 174.584 16.369Z" fill="#EBF7FF"/>
<path d="M202.002 31.6752L199.85 31.9176C198.671 32.0481 198.035 31.5261 197.343 30.538C196.482 29.3821 195.004 28.5245 192.796 28.5245C189.97 28.5245 187.818 29.8668 187.837 31.8058C187.818 33.465 188.978 34.4718 191.898 35.1243L196.8 36.1683C202.227 37.3429 204.865 39.8411 204.884 43.924C204.865 49.3493 199.794 53.0593 192.609 53.0593C186.583 53.0593 182.467 50.7848 180.876 46.8324C180.333 45.5087 181.119 44.5952 182.523 44.4647L185.086 44.2223C186.284 44.1104 186.901 44.6511 187.556 45.6951C188.511 47.2053 190.232 47.9696 192.59 47.9696C195.808 47.9696 197.942 46.4968 197.942 44.5392C197.942 42.9173 196.707 41.8546 194.068 41.2766L189.166 40.2512C183.646 39.114 181.063 36.3548 181.082 32.1786C181.063 26.8839 185.779 23.4908 192.702 23.4908C198.372 23.4908 202.039 25.6907 203.611 29.2702C204.173 30.5939 203.424 31.5261 202.002 31.6752Z" fill="#EBF7FF"/>
<path d="M223.193 53.0593C214.53 53.0593 209.234 47.3358 209.234 38.3496C209.234 29.5126 214.605 23.4908 222.838 23.4908C229.911 23.4908 235.974 27.9093 235.974 37.9581V37.9767C235.974 39.3004 235.244 40.0275 233.915 40.0275H215.952C216.008 44.9308 218.908 47.8018 223.287 47.8018C225.532 47.8018 227.385 47.0561 228.526 45.6019C229.256 44.6511 229.93 44.1664 231.09 44.2969L233.373 44.5579C234.814 44.7257 235.562 45.5087 235.094 46.5714C233.335 50.5424 229.069 53.0593 223.193 53.0593ZM215.971 35.4785H229.481C229.443 31.582 226.824 28.7482 222.932 28.7482C218.89 28.7482 216.176 31.8244 215.971 35.4785Z" fill="#EBF7FF"/>
<path d="M267.321 24.8145H264.645C263.429 24.8145 262.868 24.2179 262.362 23.0806C261.371 20.8993 258.938 19.6502 255.607 19.6502C251.266 19.6502 248.684 21.7569 248.665 24.628C248.628 27.816 252.033 29.1397 255.177 29.8855L258.77 30.7804C264.533 32.1413 270.016 35.1616 270.034 41.78C270.016 48.5103 264.683 53.0779 255.495 53.0779C247.449 53.0779 242.06 49.6103 240.862 43.3833C240.6 42.0037 241.424 41.2207 242.808 41.2207H245.596C246.831 41.2207 247.393 41.8546 247.823 43.0291C248.871 45.807 251.809 47.168 255.439 47.168C259.967 47.168 263.074 44.9867 263.092 41.7241C263.074 38.7598 260.342 37.4734 256.206 36.4293L251.846 35.3107C245.54 33.6887 241.63 30.538 241.63 25.0568C241.611 18.3079 247.655 13.7962 255.701 13.7962C262.924 13.7962 268.07 17.3757 269.249 22.6518C269.548 24.0128 268.706 24.8145 267.321 24.8145Z" fill="#EBF7FF"/>
<path d="M280.134 63.2386C279.274 63.2386 278.45 63.1641 277.72 63.0522C276.392 62.8285 275.943 61.8217 276.317 60.5353L276.729 59.1557C277.103 57.9066 277.926 57.5524 279.236 57.6829C281.145 57.8507 282.529 57.1422 283.484 54.644L284.064 53.0966L274.483 26.2127C273.978 24.7958 274.633 23.8636 276.149 23.8636H279.03C280.228 23.8636 280.995 24.4229 281.351 25.5788L287.451 45.4901H287.75L293.869 25.5788C294.224 24.4229 294.992 23.8636 296.189 23.8636H299.09C300.605 23.8636 301.26 24.7958 300.755 26.2127L290.089 55.9677C288.461 60.5353 285.411 63.2386 280.134 63.2386Z" fill="#EBF7FF"/>
<path d="M313.058 35.7209V50.4492C313.058 51.7729 312.328 52.5 311 52.5H308.343C307.014 52.5 306.284 51.7729 306.284 50.4492V25.9144C306.284 24.5907 307.014 23.8636 308.343 23.8636H310.7C312.029 23.8636 312.759 24.5907 312.759 25.9144V28.7296H313.096C314.405 25.5415 317.362 23.4908 321.666 23.4908C327.597 23.4908 331.527 27.4059 331.508 34.2667V50.4492C331.508 51.7729 330.778 52.5 329.45 52.5H326.793C325.464 52.5 324.734 51.7729 324.734 50.4492V35.3107C324.734 31.4888 322.639 29.1957 319.14 29.1957C315.566 29.1957 313.058 31.582 313.058 35.7209Z" fill="#EBF7FF"/>
<path d="M350.931 53.0593C342.343 53.0593 337.159 46.9629 337.159 38.2937C337.159 29.5499 342.473 23.4908 350.894 23.4908C357.031 23.4908 361.541 26.6229 362.87 31.5634C363.244 32.943 362.402 33.782 360.998 33.782H358.547C357.35 33.782 356.751 33.204 356.227 32.104C355.31 30.2211 353.532 28.9347 350.987 28.9347C346.815 28.9347 344.027 32.4023 344.027 38.1818C344.027 44.0359 346.759 47.5595 350.987 47.5595C353.364 47.5595 355.254 46.4409 356.227 44.4087C356.751 43.2901 357.368 42.7122 358.566 42.7122H360.998C362.421 42.7122 363.225 43.4393 362.944 44.6325C361.728 49.6662 357.368 53.0593 350.931 53.0593Z" fill="#EBF7FF"/>
<path fill-rule="evenodd" clip-rule="evenodd" d="M4.879 0H65.3786C68.0732 0 70.2576 2.17639 70.2576 4.86111V65.1389C70.2576 67.8236 68.0732 70 65.3786 70H4.879C2.1844 70 0 67.8236 0 65.1389V4.86111C0 2.17639 2.1844 0 4.879 0ZM18.7819 13.6586C15.9801 13.6586 13.7087 15.9216 13.7087 18.7131C13.7087 20.5017 14.6411 22.0733 16.048 22.9717C16.8298 23.4603 17.7546 23.7427 18.7456 23.7427H51.512C52.5011 23.7427 53.4242 23.4613 54.2051 22.9745C55.6144 22.0765 56.5488 20.5035 56.5488 18.7131C56.5488 15.9216 54.2774 13.6586 51.4756 13.6586H18.7819ZM13.7087 31.0687C13.7087 28.2772 15.9801 26.0141 18.7819 26.0141H25.5461C27.1633 26.0141 28.6037 26.768 29.5326 27.9423C30.2072 28.802 30.6093 29.8842 30.6093 31.06C30.6093 33.6508 28.6573 35.7873 26.1386 36.0892C25.9443 36.1117 25.7466 36.1233 25.5461 36.1233H18.7819C15.9801 36.1233 13.7087 33.8603 13.7087 31.0687ZM51.4756 36.1233H44.7113C41.9095 36.1233 39.6382 33.8603 39.6382 31.0687C39.6382 28.2772 41.9095 26.0141 44.7113 26.0141H51.4756C54.2774 26.0141 56.5488 28.2772 56.5488 31.0687C56.5488 33.8603 54.2774 36.1233 51.4756 36.1233ZM26.6735 56.3415H17.6546C15.4753 56.3415 13.7087 54.5814 13.7087 52.4102C13.7087 51.1055 14.3466 49.9494 15.3285 49.2342C15.9742 48.7774 16.7635 48.5087 17.6157 48.5087H26.6547C28.8388 48.5087 30.6093 50.2728 30.6093 52.4489C30.6093 52.7714 30.5704 53.0848 30.497 53.3848C30.0619 55.0846 28.515 56.3415 26.6735 56.3415ZM16.8975 38.442C15.0804 38.7938 13.7087 40.3878 13.7087 42.3011C13.7087 44.4723 15.4753 46.2324 17.6546 46.2324H21.0366C22.0405 46.2324 22.9569 45.8588 23.6533 45.2437C24.4556 44.5226 24.9599 43.4786 24.9599 42.3172C24.9599 40.1412 23.1894 38.3772 21.0054 38.3772H17.6157C17.3705 38.3772 17.1304 38.3994 16.8975 38.442ZM52.6029 46.2324H31.1829C29.0038 46.2324 27.2371 44.4723 27.2371 42.3011C27.2371 40.9326 27.9389 39.7275 29.0034 39.0234C29.6266 38.6149 30.3726 38.3772 31.1743 38.3772H52.6418C52.8871 38.3772 53.1272 38.3995 53.3601 38.442C55.1771 38.7939 56.5488 40.3879 56.5488 42.3011C56.5488 44.4723 54.7822 46.2324 52.6029 46.2324Z" fill="#EBF7FF"/>
</svg>
