<svg width="146" height="42" viewBox="0 0 146 42" fill="none" xmlns="http://www.w3.org/2000/svg">
<path fill-rule="evenodd" clip-rule="evenodd" d="M5.42593 2.33333H37.5741C39.0059 2.33333 40.1667 3.49408 40.1667 4.92593V37.0741C40.1667 38.5059 39.0059 39.6667 37.5741 39.6667H5.42593C3.99408 39.6667 2.83333 38.5059 2.83333 37.0741V4.92593C2.83333 3.49408 3.99408 2.33333 5.42593 2.33333ZM12.8136 9.6179C11.3248 9.6179 10.1178 10.8249 10.1178 12.3137C10.1178 13.2676 10.6133 14.1057 11.3609 14.5849C11.7763 14.8455 12.2677 14.9961 12.7943 14.9961H30.2057C30.7312 14.9961 31.2218 14.846 31.6367 14.5864C32.3856 14.1075 32.8821 13.2686 32.8821 12.3137C32.8821 10.8249 31.6752 9.6179 30.1863 9.6179H12.8136ZM10.1178 18.9033C10.1178 17.4145 11.3248 16.2075 12.8136 16.2075H16.408C17.2673 16.2075 18.0327 16.6096 18.5263 17.2359C18.8848 17.6944 19.0984 18.2716 19.0984 18.8986C19.0984 20.2804 18.0612 21.4199 16.7228 21.5809C16.6195 21.5929 16.5145 21.5991 16.408 21.5991H12.8136C11.3248 21.5991 10.1178 20.3921 10.1178 18.9033ZM30.1863 21.5991H26.592C25.1031 21.5991 23.8962 20.3921 23.8962 18.9033C23.8962 17.4145 25.1031 16.2075 26.592 16.2075H30.1863C31.6752 16.2075 32.8821 17.4145 32.8821 18.9033C32.8821 20.3921 31.6752 21.5991 30.1863 21.5991ZM17.007 32.3822H12.2146C11.0566 32.3822 10.1178 31.4434 10.1178 30.2854C10.1178 29.5896 10.4568 28.973 10.9786 28.5916C11.3217 28.3479 11.7411 28.2047 12.1939 28.2047H16.9971C18.1576 28.2047 19.0984 29.1455 19.0984 30.3061C19.0984 30.4781 19.0778 30.6452 19.0388 30.8052C18.8076 31.7118 17.9856 32.3822 17.007 32.3822ZM11.8123 22.8357C10.8468 23.0234 10.1178 23.8735 10.1178 24.8939C10.1178 26.0519 11.0566 26.9906 12.2146 26.9906H14.0117C14.5452 26.9906 15.0321 26.7914 15.4022 26.4633C15.8285 26.0787 16.0965 25.5219 16.0965 24.9025C16.0965 23.742 15.1557 22.8012 13.9951 22.8012H12.1939C12.0636 22.8012 11.9361 22.813 11.8123 22.8357ZM30.7854 26.9906H19.4033C18.2453 26.9906 17.3065 26.0519 17.3065 24.8939C17.3065 24.1641 17.6795 23.5213 18.2451 23.1458C18.5763 22.9279 18.9727 22.8012 19.3987 22.8012H30.8061C30.9364 22.8012 31.064 22.813 31.1877 22.8358C32.1532 23.0234 32.8821 23.8735 32.8821 24.8939C32.8821 26.0519 31.9434 26.9906 30.7854 26.9906Z" fill="white"/>
<path d="M54.5 15L66.5 27M66.5 15L54.5 27" stroke="white" stroke-width="3"/>
<path d="M80.1046 27.2188V14.2358C80.1046 13.7315 80.3816 13.4545 80.8858 13.4545H88.7836C89.2878 13.4545 89.5648 13.7315 89.5648 14.2358V14.8821C89.5648 15.3864 89.2878 15.6634 88.7836 15.6634H82.7395V19.6122H88.2935C88.7978 19.6122 89.0748 19.8892 89.0748 20.3935V21.0398C89.0748 21.544 88.7978 21.821 88.2935 21.821H82.7395V25.7912H88.8404C89.3446 25.7912 89.6216 26.0682 89.6216 26.5724V27.2188C89.6216 27.723 89.3446 28 88.8404 28H80.8858C80.3816 28 80.1046 27.723 80.1046 27.2188ZM92.253 27.2188V14.2358C92.253 13.7315 92.53 13.4545 93.0343 13.4545H97.7076C101.046 13.4545 102.835 15.3295 102.835 18.1065C102.835 20.081 101.933 21.544 100.222 22.233L102.857 27.0696C103.148 27.6094 102.921 28 102.31 28H101.053C100.619 28 100.335 27.8295 100.129 27.446L97.5726 22.6733H94.888V27.2188C94.888 27.723 94.611 28 94.1067 28H93.0343C92.53 28 92.253 27.723 92.253 27.2188ZM94.888 20.4858H97.3169C99.2701 20.4858 100.151 19.6548 100.151 18.1065C100.151 16.5582 99.2701 15.6562 97.3027 15.6562H94.888V20.4858ZM105.261 27.2188V14.2358C105.261 13.7315 105.538 13.4545 106.042 13.4545H110.715C114.053 13.4545 115.843 15.3295 115.843 18.1065C115.843 20.081 114.941 21.544 113.23 22.233L115.865 27.0696C116.156 27.6094 115.928 28 115.318 28H114.061C113.627 28 113.343 27.8295 113.137 27.446L110.58 22.6733H107.896V27.2188C107.896 27.723 107.619 28 107.115 28H106.042C105.538 28 105.261 27.723 105.261 27.2188ZM107.896 20.4858H110.325C112.278 20.4858 113.159 19.6548 113.159 18.1065C113.159 16.5582 112.278 15.6562 110.311 15.6562H107.896V20.4858ZM131.266 20.7273C131.266 25.429 128.396 28.1989 124.583 28.1989C120.762 28.1989 117.899 25.4219 117.899 20.7273C117.899 16.0256 120.762 13.2557 124.583 13.2557C128.396 13.2557 131.266 16.0256 131.266 20.7273ZM128.617 20.7273C128.617 17.4176 126.955 15.6207 124.583 15.6207C122.218 15.6207 120.548 17.4176 120.548 20.7273C120.548 24.0369 122.218 25.8338 124.583 25.8338C126.955 25.8338 128.617 24.0369 128.617 20.7273ZM133.757 27.2188V14.2358C133.757 13.7315 134.034 13.4545 134.538 13.4545H139.211C142.55 13.4545 144.339 15.3295 144.339 18.1065C144.339 20.081 143.437 21.544 141.726 22.233L144.361 27.0696C144.652 27.6094 144.425 28 143.814 28H142.557C142.123 28 141.839 27.8295 141.633 27.446L139.077 22.6733H136.392V27.2188C136.392 27.723 136.115 28 135.611 28H134.538C134.034 28 133.757 27.723 133.757 27.2188ZM136.392 20.4858H138.821C140.774 20.4858 141.655 19.6548 141.655 18.1065C141.655 16.5582 140.774 15.6562 138.807 15.6562H136.392V20.4858Z" fill="white"/>
</svg>
